<svg xmlns="http://www.w3.org/2000/svg" width="1200" height="675" viewBox="0 0 1200 675" font-family="Helvetica, Arial, sans-serif">
<defs><filter id="sh" x="-20%" y="-20%" width="140%" height="140%"><feDropShadow dx="0" dy="10" stdDeviation="14" flood-color="#ee4d2d" flood-opacity="0.18"/></filter></defs>
<rect width="1200" height="675" fill="#fff7f4"/><rect width="1200" height="10" fill="#ee4d2d"/>
<text x="600" y="92" font-size="44" font-weight="700" fill="#1f1a17" text-anchor="middle">Quét VietQR bằng ShopeePay</text>
<g filter="url(#sh)"><rect x="60" y="170" width="252" height="380" rx="24" fill="#fff"/></g>
<circle cx="186" cy="250" r="44" fill="#ee4d2d"/><text x="186" y="266" font-size="44" font-weight="700" fill="#fff" text-anchor="middle">1</text>
<rect x="158.0" y="332" width="56" height="96" rx="12" fill="#1f1a17"/><rect x="164.0" y="340" width="44" height="76" rx="6" fill="#fff"/><rect x="164.0" y="340" width="44" height="24" rx="6" fill="#ee4d2d"/>
<text x="186" y="470" font-size="26" font-weight="700" fill="#1f1a17" text-anchor="middle">Mở ứng dụng</text>
<text x="186" y="506" font-size="20" fill="#5b524d" text-anchor="middle">chọn quét mã QR</text><path d="M317 240 l10 10 l-10 10" fill="none" stroke="#ee4d2d" stroke-width="4" stroke-linecap="round"/><g filter="url(#sh)"><rect x="336" y="170" width="252" height="380" rx="24" fill="#fff"/></g>
<circle cx="462" cy="250" r="44" fill="#ee4d2d"/><text x="462" y="266" font-size="44" font-weight="700" fill="#fff" text-anchor="middle">2</text>
<rect x="416.0" y="334" width="92" height="92" rx="12" fill="#fff" stroke="#ee4d2d" stroke-width="4"/><rect x="426.0" y="344.0" width="6.2" height="6.2" rx="2" fill="#1f1a17"/><rect x="433.2" y="344.0" width="6.2" height="6.2" rx="2" fill="#1f1a17"/><rect x="440.4" y="344.0" width="6.2" height="6.2" rx="2" fill="#1f1a17"/><rect x="447.6" y="344.0" width="6.2" height="6.2" rx="2" fill="#1f1a17"/><rect x="454.8" y="344.0" width="6.2" height="6.2" rx="2" fill="#1f1a17"/><rect x="469.2" y="344.0" width="6.2" height="6.2" rx="2" fill="#1f1a17"/><rect x="483.6" y="344.0" width="6.2" height="6.2" rx="2" fill="#1f1a17"/><rect x="490.8" y="344.0" width="6.2" height="6.2" rx="2" fill="#1f1a17"/><rect x="426.0" y="351.2" width="6.2" height="6.2" rx="2" fill="#1f1a17"/><rect x="454.8" y="351.2" width="6.2" height="6.2" rx="2" fill="#1f1a17"/><rect x="469.2" y="351.2" width="6.2" height="6.2" rx="2" fill="#1f1a17"/><rect x="476.4" y="351.2" width="6.2" height="6.2" rx="2" fill="#1f1a17"/><rect x="426.0" y="358.4" width="6.2" height="6.2" rx="2" fill="#1f1a17"/><rect x="440.4" y="358.4" width="6.2" height="6.2" rx="2" fill="#1f1a17"/><rect x="447.6" y="358.4" width="6.2" height="6.2" rx="2" fill="#1f1a17"/><rect x="454.8" y="358.4" width="6.2" height="6.2" rx="2" fill="#1f1a17"/><rect x="469.2" y="358.4" width="6.2" height="6.2" rx="2" fill="#1f1a17"/><rect x="483.6" y="358.4" width="6.2" height="6.2" rx="2" fill="#1f1a17"/><rect x="426.0" y="365.6" width="6.2" height="6.2" rx="2" fill="#1f1a17"/><rect x="440.4" y="365.6" width="6.2" height="6.2" rx="2" fill="#1f1a17"/><rect x="447.6" y="365.6" width="6.2" height="6.2" rx="2" fill="#1f1a17"/><rect x="454.8" y="365.6" width="6.2" height="6.2" rx="2" fill="#1f1a17"/><rect x="476.4" y="365.6" width="6.2" height="6.2" rx="2" fill="#1f1a17"/><rect x="483.6" y="365.6" width="6.2" height="6.2" rx="2" fill="#1f1a17"/><rect x="490.8" y="365.6" width="6.2" height="6.2" rx="2" fill="#1f1a17"/><rect x="426.0" y="372.8" width="6.2" height="6.2" rx="2" fill="#1f1a17"/><rect x="454.8" y="372.8" width="6.2" height="6.2" rx="2" fill="#1f1a17"/><rect x="476.4" y="372.8" width="6.2" height="6.2" rx="2" fill="#1f1a17"/><rect x="490.8" y="372.8" width="6.2" height="6.2" rx="2" fill="#1f1a17"/><rect x="426.0" y="380.0" width="6.2" height="6.2" rx="2" fill="#1f1a17"/><rect x="433.2" y="380.0" width="6.2" height="6.2" rx="2" fill="#1f1a17"/><rect x="440.4" y="380.0" width="6.2" height="6.2" rx="2" fill="#1f1a17"/><rect x="447.6" y="380.0" width="6.2" height="6.2" rx="2" fill="#1f1a17"/><rect x="454.8" y="380.0" width="6.2" height="6.2" rx="2" fill="#1f1a17"/><rect x="469.2" y="380.0" width="6.2" height="6.2" rx="2" fill="#1f1a17"/><rect x="483.6" y="380.0" width="6.2" height="6.2" rx="2" fill="#1f1a17"/><rect x="440.4" y="387.2" width="6.2" height="6.2" rx="2" fill="#1f1a17"/><rect x="462.0" y="387.2" width="6.2" height="6.2" rx="2" fill="#1f1a17"/><rect x="469.2" y="387.2" width="6.2" height="6.2" rx="2" fill="#1f1a17"/><rect x="476.4" y="387.2" width="6.2" height="6.2" rx="2" fill="#1f1a17"/><rect x="490.8" y="387.2" width="6.2" height="6.2" rx="2" fill="#1f1a17"/><rect x="426.0" y="394.4" width="6.2" height="6.2" rx="2" fill="#1f1a17"/><rect x="433.2" y="394.4" width="6.2" height="6.2" rx="2" fill="#1f1a17"/><rect x="447.6" y="394.4" width="6.2" height="6.2" rx="2" fill="#1f1a17"/><rect x="454.8" y="394.4" width="6.2" height="6.2" rx="2" fill="#1f1a17"/><rect x="483.6" y="394.4" width="6.2" height="6.2" rx="2" fill="#1f1a17"/><rect x="490.8" y="394.4" width="6.2" height="6.2" rx="2" fill="#1f1a17"/><rect x="433.2" y="401.6" width="6.2" height="6.2" rx="2" fill="#1f1a17"/><rect x="454.8" y="401.6" width="6.2" height="6.2" rx="2" fill="#1f1a17"/><rect x="462.0" y="401.6" width="6.2" height="6.2" rx="2" fill="#1f1a17"/><rect x="476.4" y="401.6" width="6.2" height="6.2" rx="2" fill="#1f1a17"/><rect x="483.6" y="401.6" width="6.2" height="6.2" rx="2" fill="#1f1a17"/><rect x="426.0" y="408.8" width="6.2" height="6.2" rx="2" fill="#1f1a17"/><rect x="440.4" y="408.8" width="6.2" height="6.2" rx="2" fill="#1f1a17"/><rect x="447.6" y="408.8" width="6.2" height="6.2" rx="2" fill="#1f1a17"/><rect x="462.0" y="408.8" width="6.2" height="6.2" rx="2" fill="#1f1a17"/><rect x="469.2" y="408.8" width="6.2" height="6.2" rx="2" fill="#1f1a17"/><rect x="476.4" y="408.8" width="6.2" height="6.2" rx="2" fill="#1f1a17"/><rect x="490.8" y="408.8" width="6.2" height="6.2" rx="2" fill="#1f1a17"/>
<text x="462" y="470" font-size="26" font-weight="700" fill="#1f1a17" text-anchor="middle">Quét mã</text>
<text x="462" y="506" font-size="20" fill="#5b524d" text-anchor="middle">VietQR, ví, đối tác</text><path d="M593 240 l10 10 l-10 10" fill="none" stroke="#ee4d2d" stroke-width="4" stroke-linecap="round"/><g filter="url(#sh)"><rect x="612" y="170" width="252" height="380" rx="24" fill="#fff"/></g>
<circle cx="738" cy="250" r="44" fill="#ee4d2d"/><text x="738" y="266" font-size="44" font-weight="700" fill="#fff" text-anchor="middle">3</text>
<circle cx="738.0" cy="380" r="40" fill="#fff1ec"/><path d="M720.0 380 l12 12 l24 -26" fill="none" stroke="#ee4d2d" stroke-width="8" stroke-linecap="round" stroke-linejoin="round"/>
<text x="738" y="470" font-size="26" font-weight="700" fill="#1f1a17" text-anchor="middle">Kiểm tra</text>
<text x="738" y="506" font-size="20" fill="#5b524d" text-anchor="middle">tên người nhận, số tiền</text><path d="M869 240 l10 10 l-10 10" fill="none" stroke="#ee4d2d" stroke-width="4" stroke-linecap="round"/><g filter="url(#sh)"><rect x="888" y="170" width="252" height="380" rx="24" fill="#fff"/></g>
<circle cx="1014" cy="250" r="44" fill="#ee4d2d"/><text x="1014" y="266" font-size="44" font-weight="700" fill="#fff" text-anchor="middle">4</text>
<circle cx="1014.0" cy="380" r="40" fill="#ffc53d"/><circle cx="1014.0" cy="380" r="31" fill="none" stroke="#e8a317" stroke-width="5"/>
<text x="1014.0" y="391.2" font-size="29" font-weight="700" fill="#8a5a00" text-anchor="middle">XU</text>
<text x="1014" y="470" font-size="26" font-weight="700" fill="#1f1a17" text-anchor="middle">Xác nhận</text>
<text x="1014" y="506" font-size="20" fill="#5b524d" text-anchor="middle">nhận hoàn đến 15.000 xu</text>
<text x="1160" y="650" font-size="18" fill="#5b524d" text-anchor="end">Ví ShopeePay</text></svg>