<svg xmlns="http://www.w3.org/2000/svg" width="1200" height="630" viewBox="0 0 1200 630" font-family="Helvetica, Arial, sans-serif">
  <defs>
    <linearGradient id="bg" x1="0" y1="0" x2="1" y2="1">
      <stop offset="0" stop-color="#fff7f4"/>
      <stop offset="1" stop-color="#ffe6dc"/>
    </linearGradient>
    <linearGradient id="brand" x1="0" y1="0" x2="1" y2="1">
      <stop offset="0" stop-color="#ee4d2d"/>
      <stop offset="1" stop-color="#d0391b"/>
    </linearGradient>
    <filter id="shadow" x="-20%" y="-20%" width="140%" height="140%">
      <feDropShadow dx="0" dy="14" stdDeviation="18" flood-color="#ee4d2d" flood-opacity="0.22"/>
    </filter>
  </defs>
  <rect width="1200" height="630" fill="url(#bg)"/>
  <circle cx="930" cy="315" r="300" fill="#ee4d2d" opacity="0.07"/>
  <circle cx="930" cy="315" r="200" fill="#ee4d2d" opacity="0.07"/>
  <rect x="0" y="0" width="14" height="630" fill="url(#brand)"/>

  <!-- Chữ bên trái -->
  <rect x="80" y="120" width="220" height="44" rx="22" fill="#ee4d2d"/>
  <text x="190" y="149" font-size="20" font-weight="700" fill="#fff" text-anchor="middle" letter-spacing="1">ƯU ĐÃI</text>
  <text x="80" y="260" font-size="64" font-weight="700" fill="#1f1a17">Guta Cafe giảm</text>
  <text x="80" y="340" font-size="64" font-weight="700" fill="#ee4d2d">50% với ShopeePay</text>
  <text x="80" y="410" font-size="28" fill="#5b524d">01/10 – 30/11/2026</text>
  <rect x="80" y="500" width="44" height="44" rx="11" fill="url(#brand)"/>
  <rect x="90" y="513" width="24" height="18" rx="4" fill="#fff"/>
  <text x="140" y="531" font-size="24" font-weight="700" fill="#1f1a17">Ví ShopeePay</text>

  <!-- Hình minh hoạ bên phải -->
  <g filter="url(#shadow)">
    <path d="M786.25 257.5 L973.75 257.5 L948.75 520 L811.25 520 Z" fill="#ee4d2d"/><rect x="773.75" y="225.0" width="212.5" height="35.0" rx="12.5" fill="#fff" stroke="#ee4d2d" stroke-width="5.0"/><rect x="892.5" y="145.0" width="15.0" height="87.5" rx="6.25" fill="#1f1a17" transform="rotate(12 900.0 225.0)"/><rect x="813.75" y="332.5" width="132.5" height="80.0" rx="15.0" fill="#fff" opacity="0.92"/><text x="880" y="386.25" font-size="27.5" font-weight="700" fill="#ee4d2d" text-anchor="middle">CÀ PHÊ</text><rect x="960" y="110" width="190" height="110" rx="22" fill="#ee4d2d"/><text x="1055.0" y="168" font-size="48" font-weight="700" fill="#fff" text-anchor="middle">-50%</text><text x="1055.0" y="202" font-size="22" fill="#fff" text-anchor="middle">tối đa 30.000đ</text><rect x="722" y="100" width="96" height="96" rx="10" fill="#fff" stroke="#ee4d2d" stroke-width="4"/><rect x="730.0" y="108.0" width="6.9" height="6.9" rx="1.5" fill="#1f1a17"/><rect x="738.0" y="108.0" width="6.9" height="6.9" rx="1.5" fill="#1f1a17"/><rect x="746.0" y="108.0" width="6.9" height="6.9" rx="1.5" fill="#1f1a17"/><rect x="754.0" y="108.0" width="6.9" height="6.9" rx="1.5" fill="#1f1a17"/><rect x="762.0" y="108.0" width="6.9" height="6.9" rx="1.5" fill="#1f1a17"/><rect x="778.0" y="108.0" width="6.9" height="6.9" rx="1.5" fill="#1f1a17"/><rect x="794.0" y="108.0" width="6.9" height="6.9" rx="1.5" fill="#1f1a17"/><rect x="802.0" y="108.0" width="6.9" height="6.9" rx="1.5" fill="#1f1a17"/><rect x="730.0" y="116.0" width="6.9" height="6.9" rx="1.5" fill="#1f1a17"/><rect x="762.0" y="116.0" width="6.9" height="6.9" rx="1.5" fill="#1f1a17"/><rect x="778.0" y="116.0" width="6.9" height="6.9" rx="1.5" fill="#1f1a17"/><rect x="786.0" y="116.0" width="6.9" height="6.9" rx="1.5" fill="#1f1a17"/><rect x="794.0" y="116.0" width="6.9" height="6.9" rx="1.5" fill="#1f1a17"/><rect x="730.0" y="124.0" width="6.9" height="6.9" rx="1.5" fill="#1f1a17"/><rect x="746.0" y="124.0" width="6.9" height="6.9" rx="1.5" fill="#1f1a17"/><rect x="754.0" y="124.0" width="6.9" height="6.9" rx="1.5" fill="#1f1a17"/><rect x="762.0" y="124.0" width="6.9" height="6.9" rx="1.5" fill="#1f1a17"/><rect x="778.0" y="124.0" width="6.9" height="6.9" rx="1.5" fill="#1f1a17"/><rect x="802.0" y="124.0" width="6.9" height="6.9" rx="1.5" fill="#1f1a17"/><rect x="730.0" y="132.0" width="6.9" height="6.9" rx="1.5" fill="#1f1a17"/><rect x="746.0" y="132.0" width="6.9" height="6.9" rx="1.5" fill="#1f1a17"/><rect x="754.0" y="132.0" width="6.9" height="6.9" rx="1.5" fill="#1f1a17"/><rect x="762.0" y="132.0" width="6.9" height="6.9" rx="1.5" fill="#1f1a17"/><rect x="786.0" y="132.0" width="6.9" height="6.9" rx="1.5" fill="#1f1a17"/><rect x="794.0" y="132.0" width="6.9" height="6.9" rx="1.5" fill="#1f1a17"/><rect x="802.0" y="132.0" width="6.9" height="6.9" rx="1.5" fill="#1f1a17"/><rect x="730.0" y="140.0" width="6.9" height="6.9" rx="1.5" fill="#1f1a17"/><rect x="762.0" y="140.0" width="6.9" height="6.9" rx="1.5" fill="#1f1a17"/><rect x="786.0" y="140.0" width="6.9" height="6.9" rx="1.5" fill="#1f1a17"/><rect x="802.0" y="140.0" width="6.9" height="6.9" rx="1.5" fill="#1f1a17"/><rect x="730.0" y="148.0" width="6.9" height="6.9" rx="1.5" fill="#1f1a17"/><rect x="738.0" y="148.0" width="6.9" height="6.9" rx="1.5" fill="#1f1a17"/><rect x="746.0" y="148.0" width="6.9" height="6.9" rx="1.5" fill="#1f1a17"/><rect x="754.0" y="148.0" width="6.9" height="6.9" rx="1.5" fill="#1f1a17"/><rect x="762.0" y="148.0" width="6.9" height="6.9" rx="1.5" fill="#1f1a17"/><rect x="778.0" y="148.0" width="6.9" height="6.9" rx="1.5" fill="#1f1a17"/><rect x="794.0" y="148.0" width="6.9" height="6.9" rx="1.5" fill="#1f1a17"/><rect x="746.0" y="156.0" width="6.9" height="6.9" rx="1.5" fill="#1f1a17"/><rect x="770.0" y="156.0" width="6.9" height="6.9" rx="1.5" fill="#1f1a17"/><rect x="778.0" y="156.0" width="6.9" height="6.9" rx="1.5" fill="#1f1a17"/><rect x="786.0" y="156.0" width="6.9" height="6.9" rx="1.5" fill="#1f1a17"/><rect x="802.0" y="156.0" width="6.9" height="6.9" rx="1.5" fill="#1f1a17"/><rect x="730.0" y="164.0" width="6.9" height="6.9" rx="1.5" fill="#1f1a17"/><rect x="738.0" y="164.0" width="6.9" height="6.9" rx="1.5" fill="#1f1a17"/><rect x="754.0" y="164.0" width="6.9" height="6.9" rx="1.5" fill="#1f1a17"/><rect x="762.0" y="164.0" width="6.9" height="6.9" rx="1.5" fill="#1f1a17"/><rect x="794.0" y="164.0" width="6.9" height="6.9" rx="1.5" fill="#1f1a17"/><rect x="802.0" y="164.0" width="6.9" height="6.9" rx="1.5" fill="#1f1a17"/><rect x="738.0" y="172.0" width="6.9" height="6.9" rx="1.5" fill="#1f1a17"/><rect x="746.0" y="172.0" width="6.9" height="6.9" rx="1.5" fill="#1f1a17"/><rect x="770.0" y="172.0" width="6.9" height="6.9" rx="1.5" fill="#1f1a17"/><rect x="778.0" y="172.0" width="6.9" height="6.9" rx="1.5" fill="#1f1a17"/><rect x="794.0" y="172.0" width="6.9" height="6.9" rx="1.5" fill="#1f1a17"/><rect x="730.0" y="180.0" width="6.9" height="6.9" rx="1.5" fill="#1f1a17"/><rect x="746.0" y="180.0" width="6.9" height="6.9" rx="1.5" fill="#1f1a17"/><rect x="754.0" y="180.0" width="6.9" height="6.9" rx="1.5" fill="#1f1a17"/><rect x="770.0" y="180.0" width="6.9" height="6.9" rx="1.5" fill="#1f1a17"/><rect x="778.0" y="180.0" width="6.9" height="6.9" rx="1.5" fill="#1f1a17"/><rect x="786.0" y="180.0" width="6.9" height="6.9" rx="1.5" fill="#1f1a17"/><rect x="802.0" y="180.0" width="6.9" height="6.9" rx="1.5" fill="#1f1a17"/>
  </g>
</svg>
