<svg xmlns="http://www.w3.org/2000/svg" width="1200" height="675" viewBox="0 0 1200 675" font-family="Helvetica, Arial, sans-serif"><defs><filter id="sh" x="-20%" y="-20%" width="140%" height="140%"><feDropShadow dx="0" dy="10" stdDeviation="14" flood-color="#ee4d2d" flood-opacity="0.18"/></filter></defs><rect width="1200" height="675" fill="#fff7f4"/><rect width="1200" height="10" fill="#ee4d2d"/><text x="600" y="92" font-size="44" font-weight="700" fill="#1f1a17" text-anchor="middle">3 thương hiệu áp dụng ưu đãi</text><g filter="url(#sh)"><rect x="60" y="160" width="340" height="400" rx="24" fill="#fff"/></g><path d="M176.0 208.8 L284.0 208.8 L269.6 360 L190.4 360 Z" fill="#ee4d2d"/><rect x="168.8" y="190.08" width="122.4" height="20.16" rx="7.199999999999999" fill="#fff" stroke="#ee4d2d" stroke-width="2.88"/><rect x="237.2" y="144.0" width="8.64" height="50.4" rx="3.5999999999999996" fill="#1f1a17" transform="rotate(12 241.52 190.08)"/><rect x="191.84" y="252.0" width="76.32" height="46.08" rx="8.64" fill="#fff" opacity="0.92"/><text x="230" y="420" font-size="30" font-weight="700" fill="#1f1a17" text-anchor="middle">Koi Thé</text><text x="230" y="454" font-size="20" fill="#5b524d" text-anchor="middle">trà sữa</text><rect x="95" y="478" width="270" height="52" rx="26" fill="#ee4d2d"/><text x="230" y="512" font-size="22" font-weight="700" fill="#fff" text-anchor="middle">-50%, tối đa 30.000đ</text><g filter="url(#sh)"><rect x="428" y="160" width="340" height="400" rx="24" fill="#fff"/></g><path d="M544.0 208.8 L652.0 208.8 L637.6 360 L558.4 360 Z" fill="#ee4d2d"/><rect x="536.8" y="190.08" width="122.4" height="20.16" rx="7.199999999999999" fill="#fff" stroke="#ee4d2d" stroke-width="2.88"/><rect x="605.2" y="144.0" width="8.64" height="50.4" rx="3.5999999999999996" fill="#1f1a17" transform="rotate(12 609.52 190.08)"/><rect x="559.84" y="252.0" width="76.32" height="46.08" rx="8.64" fill="#fff" opacity="0.92"/><text x="598" y="420" font-size="30" font-weight="700" fill="#1f1a17" text-anchor="middle">U:Tea</text><text x="598" y="454" font-size="20" fill="#5b524d" text-anchor="middle">Universal Tea</text><rect x="463" y="478" width="270" height="52" rx="26" fill="#ee4d2d"/><text x="598" y="512" font-size="22" font-weight="700" fill="#fff" text-anchor="middle">-50%, tối đa 30.000đ</text><g filter="url(#sh)"><rect x="796" y="160" width="340" height="400" rx="24" fill="#fff"/></g><path d="M912.0 208.8 L1020.0 208.8 L1005.6 360 L926.4 360 Z" fill="#ee4d2d"/><rect x="904.8" y="190.08" width="122.4" height="20.16" rx="7.199999999999999" fill="#fff" stroke="#ee4d2d" stroke-width="2.88"/><rect x="973.2" y="144.0" width="8.64" height="50.4" rx="3.5999999999999996" fill="#1f1a17" transform="rotate(12 977.52 190.08)"/><rect x="927.84" y="252.0" width="76.32" height="46.08" rx="8.64" fill="#fff" opacity="0.92"/><text x="966" y="420" font-size="30" font-weight="700" fill="#1f1a17" text-anchor="middle">The Coffee House</text><text x="966" y="454" font-size="20" fill="#5b524d" text-anchor="middle">trà, cà phê</text><rect x="831" y="478" width="270" height="52" rx="26" fill="#ee4d2d"/><text x="966" y="512" font-size="22" font-weight="700" fill="#fff" text-anchor="middle">-50%, tối đa 30.000đ</text><text x="600" y="620" font-size="22" fill="#5b524d" text-anchor="middle">01/10 – 30/11/2026 · tối đa 1 lần/tháng · không áp dụng thẻ tín dụng, thẻ Napas</text><text x="1160" y="655" font-size="18" fill="#5b524d" text-anchor="end">Ví ShopeePay</text></svg>